<svg width="120" height="120" viewBox="0 0 120 120" fill="none" xmlns="http://www.w3.org/2000/svg">
  <!-- Modern YG Monogram -->
  <g>
    <!-- Y Letter -->
    <path d="M30 25 L30 45 L40 45 L40 60 L50 60 L50 45 L60 45 L60 25 L50 25 L50 35 L40 35 L40 25 Z" fill="currentColor"/>
    <path d="M30 60 L30 95 L40 95 L40 60 Z" fill="currentColor"/>
    
    <!-- G Letter -->
    <path d="M70 25 L70 95 L100 95 L100 85 L80 85 L80 60 L95 60 L95 50 L80 50 L80 35 L100 35 L100 25 Z" fill="currentColor"/>
    <path d="M80 60 L90 60 L90 70 L80 70 Z" fill="currentColor"/>
  </g>
</svg>

