<svg width="120" height="120" viewBox="0 0 120 120" fill="none" xmlns="http://www.w3.org/2000/svg">
  <!-- Background circle -->
  <circle cx="60" cy="60" r="58" fill="none" stroke="currentColor" stroke-width="2" opacity="0.1"/>
  
  <!-- Y letter -->
  <path d="M60 20 L45 50 L40 50 L55 20 L60 20 Z" fill="currentColor" opacity="0.9"/>
  <path d="M60 20 L75 50 L80 50 L65 20 L60 20 Z" fill="currentColor" opacity="0.9"/>
  <path d="M55 50 L60 50 L60 100 L55 100 Z" fill="currentColor" opacity="0.9"/>
  <path d="M60 50 L65 50 L65 100 L60 100 Z" fill="currentColor" opacity="0.9"/>
  
  <!-- G letter -->
  <path d="M35 60 C35 45, 45 35, 60 35 C75 35, 85 45, 85 60 C85 75, 75 85, 60 85 C50 85, 42 80, 38 72" 
        stroke="currentColor" 
        stroke-width="4" 
        fill="none" 
        stroke-linecap="round" 
        stroke-linejoin="round"
        opacity="0.9"/>
  <path d="M60 60 L70 60" 
        stroke="currentColor" 
        stroke-width="4" 
        stroke-linecap="round"
        opacity="0.9"/>
</svg>

