<svg width="120" height="120" viewBox="0 0 120 120" fill="none" xmlns="http://www.w3.org/2000/svg">
  <!-- Modern geometric YG logo -->
  <defs>
    <linearGradient id="logoGradient" x1="0%" y1="0%" x2="100%" y2="100%">
      <stop offset="0%" style="stop-color:currentColor;stop-opacity:1" />
      <stop offset="100%" style="stop-color:currentColor;stop-opacity:0.7" />
    </linearGradient>
  </defs>
  
  <!-- Y Letter - Modern style -->
  <path d="M25 20 L35 20 L35 40 L45 40 L45 20 L55 20 L55 50 L45 50 L45 60 L35 60 L35 50 L25 50 Z" fill="url(#logoGradient)"/>
  <rect x="35" y="60" width="10" height="35" fill="url(#logoGradient)"/>
  
  <!-- G Letter - Modern style -->
  <path d="M65 20 L95 20 L95 35 L75 35 L75 50 L90 50 L90 60 L75 60 L75 85 L95 85 L95 100 L65 100 Z" fill="url(#logoGradient)"/>
  <rect x="75" y="60" width="15" height="10" fill="url(#logoGradient)"/>
</svg>

